<!DOCTYPE svg PUBLIC "-//W3C//DTD SVG 1.1//EN" "http://www.w3.org/Graphics/SVG/1.1/DTD/svg11.dtd">
<!-- Uploaded to: SVG Repo, www.svgrepo.com, Transformed by: SVG Repo Mixer Tools -->
<svg fill="#000000" width="800px" height="800px" viewBox="0 0 35 35" data-name="Layer 2" id="bb0b4cad-0cac-4209-9e49-891b75d27240" xmlns="http://www.w3.org/2000/svg">
<g id="SVGRepo_bgCarrier" stroke-width="0"/>
<g id="SVGRepo_tracerCarrier" stroke-linecap="round" stroke-linejoin="round"/>
<g id="SVGRepo_iconCarrier">
<path d="M29.734,34.75H22.578a1.25,1.25,0,0,1-1.25-1.25V29.527a2.9,2.9,0,0,0-1.056-2.19,4.224,4.224,0,0,0-2.64-.987A4.127,4.127,0,0,0,14.7,27.477a3.19,3.19,0,0,0-1.025,2.275V33.5a1.25,1.25,0,0,1-1.25,1.25H5.266a3.136,3.136,0,0,1-3.132-3.132V13.324A5.949,5.949,0,0,1,4.589,8.518L14.9,1.065a4.494,4.494,0,0,1,5.2.018L30.432,8.625a5.949,5.949,0,0,1,2.434,4.79v18.2A3.136,3.136,0,0,1,29.734,34.75Zm-5.906-2.5h5.906a.632.632,0,0,0,.632-.632v-18.2a3.444,3.444,0,0,0-1.408-2.771L18.617,3.1a2.024,2.024,0,0,0-2.256-.007L6.054,10.544a3.441,3.441,0,0,0-1.42,2.78V31.618a.633.633,0,0,0,.632.632h5.906v-2.5a5.666,5.666,0,0,1,1.783-4.068A6.526,6.526,0,0,1,17.7,23.852a6.72,6.72,0,0,1,4.207,1.6,5.365,5.365,0,0,1,1.917,4.078Z"/>
</g>
</svg>